<svg width="16" height="16" viewBox="0 0 16 16" fill="none" xmlns="http://www.w3.org/2000/svg">
<g clip-path="url(#clip0_1563_754)">
<rect width="16" height="16" fill="#1E1439"/>
<rect width="8" height="8" fill="#1ADDC2"/>
<rect y="8" width="8" height="8" fill="#FE3F60"/>
<rect x="8" width="8" height="8" fill="#FFC600"/>
<rect x="8" y="8" width="8" height="8" fill="#845AF7"/>
<circle cx="8" cy="8" r="7" fill="#FDFDFE"/>
<path d="M5.36018 4C5.69155 4 5.96018 4.26863 5.96018 4.6V10.8C5.96018 11.1314 5.69155 11.4 5.36018 11.4H4.60018C4.26881 11.4 4.00018 11.1314 4.00018 10.8V4.6C4.00018 4.26863 4.26881 4 4.60018 4H5.36018Z" fill="#1E1439"/>
<path d="M9.46636 11.47C8.95969 11.47 8.50636 11.3867 8.10636 11.22C7.71302 11.0467 7.39969 10.8133 7.16636 10.52C7.07353 10.3971 6.99748 10.2681 6.93819 10.133C6.79832 9.81411 7.08254 9.51 7.43074 9.51H8.18328C8.47231 9.51 8.70116 9.76201 8.93636 9.93C9.07635 10.03 9.24969 10.08 9.45636 10.08C9.61636 10.08 9.74302 10.0467 9.83636 9.98C9.92969 9.91333 9.97636 9.82667 9.97636 9.72C9.97636 9.58 9.89969 9.47667 9.74636 9.41C9.59302 9.34333 9.33969 9.27 8.98636 9.19C8.58636 9.11 8.25302 9.02 7.98635 8.92C7.71969 8.82 7.48636 8.65667 7.28636 8.43C7.09302 8.20333 6.99636 7.89667 6.99636 7.51C6.99636 7.17667 7.08635 6.87667 7.26636 6.61C7.44636 6.33667 7.70969 6.12 8.05635 5.96C8.40969 5.8 8.83302 5.72 9.32636 5.72C10.0597 5.72 10.6364 5.9 11.0564 6.26C11.3085 6.47608 11.4969 6.733 11.6217 7.03074C11.7602 7.3611 11.4725 7.68 11.1143 7.68H10.5034C10.2211 7.68 10.0036 7.43743 9.77636 7.27C9.65636 7.17 9.49302 7.12 9.28636 7.12C9.12636 7.12 9.00302 7.15 8.91636 7.21C8.83636 7.27 8.79636 7.35333 8.79636 7.46C8.79636 7.59333 8.87302 7.69667 9.02636 7.77C9.17969 7.83667 9.42635 7.90667 9.76636 7.98C10.173 8.06667 10.5097 8.16333 10.7764 8.27C11.0497 8.37667 11.2864 8.55 11.4864 8.79C11.693 9.02333 11.7964 9.34333 11.7964 9.75C11.7964 10.0767 11.6997 10.37 11.5064 10.63C11.3197 10.89 11.0497 11.0967 10.6964 11.25C10.3497 11.3967 9.93969 11.47 9.46636 11.47Z" fill="#1E1439"/>
</g>
<defs>
<clipPath id="clip0_1563_754">
<rect width="16" height="16" fill="white"/>
</clipPath>
</defs>
</svg>
