<svg width="20" height="20" viewBox="0 0 20 20" fill="none" xmlns="http://www.w3.org/2000/svg">
<path fill-rule="evenodd" clip-rule="evenodd" d="M9.94674 0.375C7.34743 0.375 7.02122 0.386365 6.00032 0.432824C4.98141 0.479483 4.28593 0.640793 3.67737 0.877474C3.04789 1.12193 2.51391 1.44894 1.98192 1.98112C1.44954 2.51311 1.12253 3.04709 0.877275 3.67638C0.639995 4.28513 0.478486 4.98082 0.432625 5.99932C0.386964 7.02022 0.375 7.34663 0.375 9.94594C0.375 12.5452 0.386565 12.8705 0.432824 13.8914C0.479682 14.9103 0.640992 15.6058 0.877474 16.2143C1.12213 16.8438 1.44914 17.3778 1.98132 17.9098C2.51311 18.4421 3.04709 18.77 3.67618 19.0144C4.28513 19.2511 4.98082 19.4124 5.99952 19.4591C7.02042 19.5055 7.34644 19.5169 9.94554 19.5169C12.5451 19.5169 12.8703 19.5055 13.8912 19.4591C14.9101 19.4124 15.6064 19.2511 16.2153 19.0144C16.8446 18.77 17.3778 18.4421 17.9096 17.9098C18.4419 17.3778 18.769 16.8438 19.0142 16.2145C19.2495 15.6058 19.411 14.9101 19.4589 13.8916C19.5047 12.8707 19.5167 12.5452 19.5167 9.94594C19.5167 7.34663 19.5047 7.02042 19.4589 5.99952C19.411 4.98062 19.2495 4.28513 19.0142 3.67658C18.769 3.04709 18.4419 2.51311 17.9096 1.98112C17.3772 1.44874 16.8448 1.12173 16.2147 0.877474C15.6046 0.640793 14.9087 0.479483 13.8898 0.432824C12.8689 0.386365 12.5439 0.375 9.94375 0.375H9.94674ZM9.08811 2.09974C9.34293 2.09934 9.62727 2.09974 9.9467 2.09974C12.5021 2.09974 12.805 2.10891 13.8142 2.15477C14.7473 2.19744 15.2538 2.35337 15.5912 2.48437C16.0378 2.65784 16.3562 2.86521 16.691 3.2002C17.026 3.53518 17.2334 3.85421 17.4072 4.30085C17.5382 4.63783 17.6944 5.14429 17.7368 6.07746C17.7827 7.0864 17.7927 7.38948 17.7927 9.94372C17.7927 12.498 17.7827 12.801 17.7368 13.81C17.6942 14.7432 17.5382 15.2496 17.4072 15.5866C17.2338 16.0332 17.026 16.3513 16.691 16.6861C16.356 17.021 16.038 17.2284 15.5912 17.4019C15.2542 17.5335 14.7473 17.689 13.8142 17.7317C12.8052 17.7775 12.5021 17.7875 9.9467 17.7875C7.39106 17.7875 7.08818 17.7775 6.07924 17.7317C5.14607 17.6886 4.63961 17.5327 4.30204 17.4017C3.85539 17.2282 3.53636 17.0208 3.20138 16.6859C2.86639 16.3509 2.65902 16.0326 2.48515 15.5858C2.35415 15.2488 2.19802 14.7424 2.15555 13.8092C2.10969 12.8003 2.10052 12.4972 2.10052 9.94133C2.10052 7.38549 2.10969 7.084 2.15555 6.07507C2.19822 5.1419 2.35415 4.63544 2.48515 4.29806C2.65863 3.85142 2.86639 3.53239 3.20138 3.1974C3.53636 2.86242 3.85539 2.65505 4.30204 2.48118C4.63941 2.34958 5.14607 2.19405 6.07924 2.15118C6.96216 2.1113 7.30432 2.09934 9.08811 2.09734V2.09974ZM15.0556 3.68892C14.4215 3.68892 13.9071 4.20276 13.9071 4.83703C13.9071 5.47111 14.4215 5.98554 15.0556 5.98554C15.6897 5.98554 16.2041 5.47111 16.2041 4.83703C16.2041 4.20296 15.6897 3.68892 15.0556 3.68892ZM9.94676 5.03084C7.2324 5.03084 5.03168 7.23156 5.03168 9.94592C5.03168 12.6603 7.2324 14.86 9.94676 14.86C12.6611 14.86 14.861 12.6603 14.861 9.94592C14.861 7.23156 12.6611 5.03084 9.94676 5.03084ZM9.94672 6.7556C11.7086 6.7556 13.137 8.18387 13.137 9.94592C13.137 11.7078 11.7086 13.1362 9.94672 13.1362C8.18467 13.1362 6.7564 11.7078 6.7564 9.94592C6.7564 8.18387 8.18467 6.7556 9.94672 6.7556Z" fill="#211842"/>
</svg>
